<svg width="290" height="134" viewBox="0 0 290 134" fill="none" xmlns="http://www.w3.org/2000/svg">
<g clip-path="url(#clip0_248_3946)">
<path d="M0.883057 97.708L289.117 96.5771" stroke="#0C0C0C" stroke-width="1.76592" stroke-miterlimit="10" stroke-linecap="round"/>
<path d="M158.73 125.707L159.798 111.681C160.151 106.965 156.814 102.915 152.567 102.915H150.165C145.892 102.915 142.545 107.009 142.942 111.751L144.108 125.777C144.452 129.932 147.587 133.115 151.339 133.115H151.49C155.269 133.115 158.412 129.897 158.73 125.707Z" fill="white" stroke="#0C0C0C" stroke-width="1.76592" stroke-miterlimit="10"/>
<path d="M106.671 127.32L105.602 116.31C105.249 112.619 108.587 109.446 112.843 109.446H115.235C119.509 109.446 122.855 112.654 122.467 116.362L121.293 127.373C120.948 130.625 117.814 133.115 114.061 133.115H113.911C110.141 133.115 106.962 130.599 106.671 127.32Z" fill="white" stroke="#0C0C0C" stroke-width="1.76592" stroke-miterlimit="10"/>
<path d="M195.541 82.0777C195.541 82.0777 195.09 69.6297 207.752 70.6816C220.414 71.7336 217.597 88.3893 208.714 80.9556C199.832 73.5219 210.931 59.5924 210.931 59.5924" stroke="#0C0C0C" stroke-width="1.76592" stroke-linecap="round" stroke-linejoin="round"/>
<path d="M87.8104 76.0643L73.9479 78.0104C73.891 77.7762 73.8468 77.5392 73.8155 77.3003C72.5794 68.5867 79.4576 60.4166 89.1879 59.0579" fill="white"/>
<path d="M87.8104 76.0643L73.9479 78.0104C73.891 77.7762 73.8468 77.5392 73.8155 77.3003C72.5794 68.5867 79.4576 60.4166 89.1879 59.0579" stroke="#0C0C0C" stroke-width="1.76592" stroke-linecap="round" stroke-linejoin="round"/>
<path d="M151.578 32.4874H129.451C104.108 32.4874 83.5635 52.8844 83.5635 78.0453C83.5635 103.206 104.108 123.603 129.451 123.603H151.578C176.921 123.603 197.466 103.206 197.466 78.0453C197.466 52.8844 176.921 32.4874 151.578 32.4874Z" fill="white" stroke="#0C0C0C" stroke-width="1.76592" stroke-miterlimit="10" stroke-linecap="round"/>
<path opacity="0.99" d="M147.525 66.7019L139.429 78.0366" stroke="#0C0C0C" stroke-width="1.76592" stroke-linecap="round" stroke-linejoin="round"/>
<path d="M139.331 78.0277C130.634 76.3621 124.789 66.9736 126.661 57.4009L139.331 78.0277Z" fill="white"/>
<path d="M139.331 78.0277C130.634 76.3621 124.789 66.9736 126.661 57.4009" stroke="#0C0C0C" stroke-width="1.76592" stroke-miterlimit="10" stroke-linecap="round"/>
<path d="M136.921 117.879L133.91 128.539C133.027 131.686 129.495 133.623 125.822 133.001H125.663C121.946 132.378 119.27 129.371 119.482 126.084L120.277 115.056" fill="white"/>
<path d="M136.921 117.879L133.91 128.539C133.027 131.686 129.495 133.623 125.822 133.001H125.663C121.946 132.378 119.27 129.371 119.482 126.084L120.277 115.056" stroke="#0C0C0C" stroke-width="1.76592" stroke-linecap="round" stroke-linejoin="round"/>
<path d="M166.226 117.265L169.158 128.372C170.041 131.659 173.52 133.632 177.228 132.983H177.378C181.104 132.308 183.806 129.144 183.559 125.716L182.429 110.533" fill="white"/>
<path d="M166.226 117.265L169.158 128.372C170.041 131.659 173.52 133.632 177.228 132.983H177.378C181.104 132.308 183.806 129.144 183.559 125.716L182.429 110.533" stroke="#0C0C0C" stroke-width="1.76592" stroke-linecap="round" stroke-linejoin="round"/>
<path d="M137.142 120.316C136.903 121.403 138.696 123.13 140.514 123.305C138.732 123.538 136.933 123.614 135.137 123.533C135.482 122.402 136.674 121.534 137.142 120.316Z" fill="#0C0C0C"/>
<path d="M119.111 119.422C118.944 120.526 117.169 121.683 115.438 121.499C117.204 121.85 117.858 123.577 120.48 122.779C120.277 121.648 119.429 120.693 119.111 119.422Z" fill="#0C0C0C"/>
<path d="M165.749 118.291C165.663 119.039 165.34 119.741 164.828 120.297C164.316 120.852 163.64 121.233 162.897 121.385C164.663 121.184 165.847 122.63 168.089 121.07C167.533 120.027 166.438 119.404 165.749 118.291Z" fill="#0C0C0C"/>
<path d="M84.5259 60.3552C85.0501 60.6853 85.422 61.2074 85.5608 61.8081C85.6997 62.4088 85.5943 63.0396 85.2675 63.5636C85.8326 63.1166 86.1505 63.4321 86.4949 62.7922C86.6711 62.4771 86.7636 62.1226 86.7636 61.7622C86.7636 61.4017 86.6711 61.0473 86.4949 60.7322C86.071 60.1273 85.2234 60.1799 84.5259 60.3552Z" fill="#0C0C0C"/>
<path d="M121.619 85.2512L121.125 91.9924C121.088 93.021 120.641 93.993 119.883 94.6949C119.125 95.3968 118.117 95.7711 117.081 95.7356H116.798C116.289 95.6799 115.795 95.5251 115.346 95.28C114.896 95.0348 114.5 94.7041 114.179 94.3069C113.859 93.9096 113.62 93.4535 113.477 92.9646C113.334 92.4757 113.29 91.9636 113.346 91.4577L113.461 89.8535L117.558 88.3369L113.761 86.2768L113.876 84.6726C113.915 83.6456 114.363 82.6758 115.121 81.9758C115.879 81.2758 116.885 80.9027 117.92 80.9382H118.202C118.712 80.998 119.205 81.157 119.653 81.4063C120.101 81.6555 120.495 81.99 120.812 82.3907C121.13 82.7914 121.364 83.2503 121.503 83.7411C121.641 84.232 121.681 84.7451 121.619 85.2512Z" fill="#0C0C0C"/>
<path d="M97.5144 83.498L97.0199 90.2479C96.9808 91.275 96.5332 92.2448 95.7752 92.9448C95.0172 93.6448 94.0106 94.0179 92.976 93.9823H92.6935C91.6634 93.8678 90.7212 93.352 90.0738 92.5482C89.4265 91.7445 89.127 90.7185 89.2411 89.6957L89.3558 88.0915L93.4174 86.61L89.6207 84.5587L89.7355 82.9545C89.7723 81.9258 90.219 80.9538 90.9772 80.252C91.7355 79.5501 92.7434 79.1758 93.7795 79.2113H94.062C95.0921 79.3258 96.0343 79.8416 96.6817 80.6454C97.329 81.4491 97.6285 82.4751 97.5144 83.498Z" fill="#0C0C0C"/>
<path d="M119.756 75.9241C119.756 75.9241 126.06 76.3887 126.475 81.2452" stroke="#0C0C0C" stroke-width="1.76592" stroke-miterlimit="10" stroke-linecap="round"/>
<path d="M93.947 74.048C93.947 74.048 87.6426 73.6009 86.5212 78.3434" stroke="#0C0C0C" stroke-width="1.76592" stroke-miterlimit="10" stroke-linecap="round"/>
<path d="M87.0068 100.408C87.1481 98.5494 88.4637 96.9014 90.1148 95.5426C93.5476 92.796 97.9157 91.4708 102.309 91.8433L107.88 92.2553C112.279 92.5169 116.407 94.4545 119.403 97.664C120.842 99.242 121.893 101.065 121.76 102.924C121.575 105.474 120.377 107.847 118.43 109.52C116.482 111.194 113.945 112.031 111.377 111.848L95.9954 110.726C94.7226 110.635 93.4804 110.295 92.3398 109.727C91.1992 109.16 90.1824 108.374 89.3477 107.416C88.5129 106.458 87.8765 105.346 87.4749 104.143C87.0732 102.941 86.9142 101.671 87.0068 100.408Z" fill="white" stroke="#0C0C0C" stroke-width="1.76592" stroke-miterlimit="10"/>
<path d="M94.3886 102.266C93.7176 100.259 94.3268 98.2515 95.7484 97.7869C97.1699 97.3223 98.8741 98.5671 99.5363 100.575C100.199 102.582 98.1765 105.054 98.1765 105.054C98.1765 105.054 95.0597 104.274 94.3886 102.266Z" fill="#0C0C0C"/>
<path d="M114.105 103.695C115.059 101.811 114.75 99.733 113.408 99.0667C112.065 98.4005 110.211 99.3911 109.258 101.276C108.304 103.161 109.946 105.904 109.946 105.904C109.946 105.904 113.143 105.589 114.105 103.695Z" fill="#0C0C0C"/>
<path d="M121.822 103.082C120.604 101.583 120.056 96.2352 119.88 94.3592C119.873 94.2863 119.884 94.2128 119.913 94.1454C119.942 94.0781 119.988 94.019 120.046 93.9737C120.104 93.9283 120.172 93.8981 120.245 93.8858C120.318 93.8736 120.393 93.8796 120.462 93.9034C122.228 94.4819 127.279 96.2176 128.497 97.7167C129.214 98.5955 129.55 99.7209 129.43 100.845C129.311 101.97 128.747 103.001 127.862 103.713C126.976 104.424 125.843 104.757 124.71 104.639C123.578 104.521 122.539 103.96 121.822 103.082Z" fill="#0E70F1"/>
<path d="M85.5677 4.18137L102.176 51.8782C102.321 52.2972 102.576 52.6701 102.915 52.9585C103.253 53.247 103.664 53.4405 104.103 53.5191C104.542 53.5977 104.994 53.5586 105.413 53.4058C105.832 53.2529 106.202 52.9919 106.485 52.6496L140.223 11.9482C140.507 11.6065 140.694 11.1958 140.764 10.7585C140.835 10.3212 140.787 9.87305 140.625 9.46035C140.463 9.04764 140.193 8.68529 139.843 8.41069C139.493 8.1361 139.076 7.9592 138.634 7.89823L88.3048 0.885274C87.8769 0.823612 87.4401 0.872501 87.0367 1.02719C86.6333 1.18189 86.2769 1.43718 86.0018 1.76845C85.7267 2.09971 85.5423 2.49577 85.4662 2.91842C85.3902 3.34107 85.4251 3.77603 85.5677 4.18137Z" fill="#D1405A"/>
<path d="M99.322 11.8621L98.5027 12.8502C98.0719 13.3698 98.1469 14.1377 98.6702 14.5654L109.121 23.1062C109.644 23.5339 110.418 23.4594 110.848 22.9398L111.668 21.9516C112.098 21.4321 112.023 20.6642 111.5 20.2365L101.05 11.6957C100.526 11.2681 99.7528 11.3425 99.322 11.8621Z" fill="white"/>
<path d="M114.962 27.4819C116.093 27.4819 117.01 26.5714 117.01 25.4482C117.01 24.325 116.093 23.4144 114.962 23.4144C113.83 23.4144 112.913 24.325 112.913 25.4482C112.913 26.5714 113.83 27.4819 114.962 27.4819Z" fill="white"/>
<path d="M105.576 59.4084C102.345 59.4084 99.731 58.3301 99.731 56.9977" stroke="#0C0C0C" stroke-width="1.76592" stroke-linecap="round" stroke-linejoin="round"/>
<path d="M111.43 56.9977C111.43 58.3301 108.781 59.4084 105.576 59.4084" stroke="#0C0C0C" stroke-width="1.76592" stroke-linecap="round" stroke-linejoin="round"/>
</g>
<defs>
<clipPath id="clip0_248_3946">
<rect width="290" height="134" fill="white"/>
</clipPath>
</defs>
</svg>
