<svg width="332" height="181" viewBox="0 0 332 181" fill="none" xmlns="http://www.w3.org/2000/svg">
<g clip-path="url(#clip0_248_4354)">
<path d="M1.01099 139.301L330.989 138.001" stroke="#0C0C0C" stroke-width="2.02168" stroke-miterlimit="10" stroke-linecap="round"/>
<path d="M141.791 131.282C141.789 138.627 139.731 145.826 135.848 152.069C131.965 158.312 126.411 163.351 119.811 166.62C113.211 169.889 105.827 171.257 98.4897 170.572C91.152 169.886 84.1518 167.174 78.2765 162.74C72.4013 158.305 67.8839 152.325 65.2328 145.471C62.5816 138.618 61.9017 131.163 63.2696 123.946C64.6375 116.728 67.999 110.034 72.9759 104.617C77.9527 99.1991 84.3475 95.2732 91.4409 93.2804C92.1309 93.0928 92.7399 92.6846 93.1746 92.1186C93.6092 91.5525 93.8453 90.8599 93.8467 90.1471C93.842 89.4352 93.6046 88.7442 93.1705 88.1788C92.7364 87.6134 92.1292 87.2045 91.4409 87.014C82.2362 84.4266 74.2818 78.6071 69.0467 70.6301C63.8117 62.6531 61.6497 53.0574 62.96 43.6155C64.2704 34.1736 68.9645 25.5232 76.1756 19.262C83.3866 13.0007 92.6274 9.55151 102.191 9.55151C111.755 9.55151 120.996 13.0007 128.207 19.262C135.418 25.5232 140.112 34.1736 141.422 43.6155C142.733 53.0574 140.571 62.6531 135.336 70.6301C130.101 78.6071 122.146 84.4266 112.941 87.014C112.251 87.2027 111.642 87.6108 111.206 88.1764C110.77 88.7419 110.531 89.4339 110.526 90.1471C110.529 90.8595 110.765 91.5513 111.2 92.117C111.634 92.6827 112.242 93.0913 112.931 93.2804C121.239 95.616 128.554 100.592 133.763 107.452C138.972 114.311 141.791 122.679 141.791 131.282Z" fill="white" stroke="#0C0C0C" stroke-width="2.02168" stroke-linecap="round" stroke-linejoin="round"/>
<path d="M46.5258 93.7441L50.6222 104.086C50.6655 104.187 50.7341 104.275 50.8214 104.341C50.9087 104.408 51.0118 104.451 51.1206 104.466C51.2294 104.482 51.3404 104.469 51.4426 104.428C51.5449 104.388 51.6351 104.322 51.7045 104.237L58.6851 95.0469C58.7523 94.9562 58.7944 94.8495 58.8072 94.7374C58.8201 94.6252 58.8032 94.5117 58.7582 94.4082C58.7132 94.3047 58.6418 94.2148 58.5511 94.1476C58.4604 94.0804 58.3536 94.0382 58.2414 94.0252L47.1968 92.8737C47.0866 92.8601 46.9748 92.8755 46.8723 92.9182C46.7699 92.961 46.6804 93.0297 46.6126 93.1175C46.5449 93.2054 46.5012 93.3094 46.486 93.4193C46.4708 93.5292 46.4845 93.6411 46.5258 93.7441Z" fill="#7B61FF"/>
<path d="M154.123 37.5707C146.838 37.4303 140.762 44.9804 140.539 54.3991C140.762 44.9804 135.022 37.2257 127.738 37.0853C135.022 37.2257 141.092 29.7024 141.332 20.2738C141.135 29.6996 146.852 37.4339 154.123 37.5707Z" fill="#F531B3"/>
<path d="M156.177 22.3737C153.509 22.8917 151.885 26.1197 152.541 29.5717C151.885 26.1197 149.185 23.7405 146.517 24.2585C149.185 23.7405 150.809 20.5228 150.158 17.0659C150.824 20.5184 153.515 22.892 156.177 22.3737Z" fill="#1BC47D"/>
<path d="M83.2352 103.332C75.5855 104.911 71.049 114.159 73.0828 123.953C71.049 114.159 63.1817 107.497 55.532 109.076C63.1817 107.497 67.7171 98.2789 65.6986 88.4705C67.7618 98.2658 75.6002 104.912 83.2352 103.332Z" fill="#F24822"/>
<path d="M134.421 46.8867C134.421 60.8803 125.536 74.9243 113.072 80.415L112.921 80.4754L112.314 80.7374C112.314 80.7374 112.314 80.7374 112.243 80.7374C110.87 81.2614 109.641 82.1026 108.657 83.1919C107.673 84.2812 106.962 85.5875 106.583 87.0037C106.033 88.8156 105.869 90.7217 106.101 92.6004C106.332 94.4791 106.954 96.289 107.927 97.9145C108.901 99.6327 109.259 101.63 108.943 103.578C108.627 105.526 107.656 107.309 106.189 108.634C104.695 109.767 102.82 110.281 100.955 110.069C99.0906 109.856 97.3802 108.935 96.1812 107.495C94.9706 105.91 94.2975 103.981 94.2593 101.989C94.2212 99.9967 94.8199 98.044 95.9689 96.4134C97.6076 94.1453 98.2964 91.3306 97.8896 88.5653C97.5459 86.2582 98.2737 83.0948 95.2209 81.9866C80.4324 78.2388 69.3232 62.5225 69.3232 46.8867H134.421Z" fill="#0E70F1"/>
<path d="M134.735 133.176C134.735 141.779 131.305 150.031 125.201 156.114C119.097 162.198 110.818 165.616 102.186 165.616C93.5531 165.616 85.2741 162.198 79.17 156.114C73.0658 150.031 69.6366 141.779 69.6366 133.176" fill="#0E70F1"/>
<path d="M101.872 54.8458C119.832 54.8458 134.391 51.2825 134.391 46.8869C134.391 42.4913 119.832 38.928 101.872 38.928C83.9126 38.928 69.3535 42.4913 69.3535 46.8869C69.3535 51.2825 83.9126 54.8458 101.872 54.8458Z" fill="#1BC47D"/>
<path d="M102.186 139.946C120.145 139.946 134.704 136.991 134.704 133.347C134.704 129.702 120.145 126.748 102.186 126.748C84.2262 126.748 69.6671 129.702 69.6671 133.347C69.6671 136.991 84.2262 139.946 102.186 139.946Z" fill="#1BC47D"/>
<path d="M132.844 1.00732H71.5268C68.4563 1.00732 65.9672 3.48812 65.9672 6.54835V7.74722C65.9672 10.8074 68.4563 13.2882 71.5268 13.2882H132.844C135.915 13.2882 138.404 10.8074 138.404 7.74722V6.54835C138.404 3.48812 135.915 1.00732 132.844 1.00732Z" fill="white" stroke="#0C0C0C" stroke-width="2.02168" stroke-linecap="round" stroke-linejoin="round"/>
<path d="M132.844 167.711H71.5268C68.4563 167.711 65.9672 170.192 65.9672 173.252V174.451C65.9672 177.512 68.4563 179.992 71.5268 179.992H132.844C135.915 179.992 138.404 177.512 138.404 174.451V173.252C138.404 170.192 135.915 167.711 132.844 167.711Z" fill="white" stroke="#0C0C0C" stroke-width="2.02168" stroke-linecap="round" stroke-linejoin="round"/>
<path d="M212.094 171.459L213.327 155.34C213.732 149.91 209.911 145.265 205.038 145.265H202.299C197.406 145.265 193.575 149.97 194.02 155.42L195.365 171.54C195.759 176.325 199.347 179.982 203.633 179.982H203.815C208.131 179.992 211.73 176.295 212.094 171.459Z" fill="white" stroke="#0C0C0C" stroke-width="2.02168" stroke-miterlimit="10"/>
<path d="M152.505 173.333L151.282 160.679C150.868 156.438 154.699 152.791 159.561 152.791H162.31C167.203 152.791 171.034 156.478 170.579 160.74L169.245 173.394C168.85 177.131 165.262 179.992 160.966 179.992H160.784C156.468 179.992 152.869 177.101 152.505 173.333Z" fill="white" stroke="#0C0C0C" stroke-width="2.02168" stroke-miterlimit="10"/>
<path d="M254.246 121.338C254.246 121.338 253.721 107.032 268.216 108.241C282.712 109.45 279.487 128.602 269.318 120.059C259.149 111.515 271.865 95.4968 271.865 95.4968" stroke="#0C0C0C" stroke-width="2.02168" stroke-linecap="round" stroke-linejoin="round"/>
<path d="M155.912 69.7058L146.814 56.5383C146.572 56.6794 146.349 56.8305 146.117 56.9917C137.767 62.7241 136.15 74.854 142.528 84.0823" fill="white"/>
<path d="M155.912 69.7058L146.814 56.5383C146.572 56.6794 146.349 56.8305 146.117 56.9917C137.767 62.7241 136.15 74.854 142.528 84.0823" stroke="#0C0C0C" stroke-width="2.02168" stroke-linecap="round" stroke-linejoin="round"/>
<path d="M203.907 64.3362H178.575C149.562 64.3362 126.042 87.7775 126.042 116.694C126.042 145.61 149.562 169.051 178.575 169.051H203.907C232.92 169.051 256.44 145.61 256.44 116.694C256.44 87.7775 232.92 64.3362 203.907 64.3362Z" fill="white" stroke="#0C0C0C" stroke-width="2.02168" stroke-miterlimit="10" stroke-linecap="round"/>
<path d="M198.205 78.7729C205.948 85.3114 206.474 97.9751 199.216 106.528L198.205 78.7729Z" fill="white"/>
<path d="M198.205 78.7729C205.948 85.3114 206.474 97.9751 199.216 106.528" stroke="#0C0C0C" stroke-width="2.02168" stroke-miterlimit="10" stroke-linecap="round"/>
<g opacity="0.99">
<path d="M183.629 85.5834L198.114 78.7729C198.253 79.0108 198.378 79.2563 198.488 79.5084C202.835 88.646 198.125 99.9497 187.966 104.695" fill="white"/>
<path d="M183.629 85.5834L198.114 78.7729C198.253 79.0108 198.378 79.2563 198.488 79.5084C202.835 88.646 198.125 99.9497 187.966 104.695" stroke="#0C0C0C" stroke-width="2.02168" stroke-linecap="round" stroke-linejoin="round"/>
</g>
<path d="M187.137 162.483L183.69 174.723C182.679 178.35 178.636 180.577 174.421 179.861H174.249C169.993 179.136 166.93 175.691 167.173 171.913L168.083 159.239" fill="white"/>
<path d="M187.137 162.483L183.69 174.723C182.679 178.35 178.636 180.577 174.421 179.861H174.249C169.993 179.136 166.93 175.691 167.173 171.913L168.083 159.239" stroke="#0C0C0C" stroke-width="2.02168" stroke-linecap="round" stroke-linejoin="round"/>
<path d="M220.686 161.767L224.032 174.542C225.043 178.32 229.036 180.587 233.271 179.831H233.453C237.719 179.045 240.812 175.418 240.529 171.479L239.286 154" fill="white"/>
<path d="M220.686 161.767L224.032 174.542C225.043 178.32 229.036 180.587 233.271 179.831H233.453C237.719 179.045 240.812 175.418 240.529 171.479L239.286 154" stroke="#0C0C0C" stroke-width="2.02168" stroke-linecap="round" stroke-linejoin="round"/>
<path d="M187.389 165.273C187.116 166.533 189.158 168.507 191.241 168.719C189.204 168.986 187.147 169.074 185.095 168.981C185.489 167.681 186.854 166.684 187.389 165.273Z" fill="#0C0C0C"/>
<path d="M166.747 164.256C166.545 165.525 164.524 166.845 162.542 166.633C164.564 167.046 165.312 169.031 168.314 168.114C168.082 166.774 167.111 165.716 166.747 164.256Z" fill="#0C0C0C"/>
<path d="M219.685 161.687C219.586 162.548 219.215 163.356 218.627 163.995C218.039 164.634 217.263 165.071 216.41 165.243C218.432 165.012 219.786 166.674 222.354 164.881C221.727 163.672 220.474 162.966 219.685 161.687Z" fill="#0C0C0C"/>
<path d="M158.995 129.146C158.701 129.761 158.59 130.234 159.106 130.697C159.621 131.161 160.218 130.526 160.703 130.224C160.403 131.159 159.807 131.972 159.005 132.541C158.156 133.014 157.258 133.392 156.326 133.669C156.13 133.735 155.92 133.748 155.717 133.709C155.514 133.669 155.324 133.578 155.167 133.445C155.009 133.311 154.889 133.139 154.817 132.945C154.746 132.752 154.726 132.543 154.759 132.34C155.073 130.536 156.66 129.307 158.995 129.146Z" fill="#0C0C0C"/>
<path d="M152.98 66.9456C153.187 67.2339 153.336 67.5601 153.416 67.9056C153.497 68.2511 153.508 68.609 153.45 68.9589C153.392 69.3088 153.265 69.6439 153.077 69.9449C152.889 70.246 152.643 70.5071 152.354 70.7134C153.152 70.4918 153.364 70.9854 154.001 70.4414C154.326 70.1835 154.578 69.8473 154.736 69.4648C154.893 69.0822 154.95 68.6658 154.901 68.2552C154.709 67.3989 153.799 67.0765 152.98 66.9456Z" fill="#0C0C0C"/>
<path d="M167.354 110.639L163.311 117.288C162.734 118.316 161.773 119.075 160.637 119.4C159.501 119.724 158.282 119.588 157.246 119.021L156.973 118.86C155.982 118.21 155.29 117.194 155.049 116.036C154.808 114.879 155.039 113.673 155.689 112.684L156.7 111.102L161.613 111.687L158.813 107.657L159.773 106.065C160.352 105.039 161.313 104.282 162.448 103.957C163.584 103.633 164.802 103.767 165.838 104.332L166.111 104.503C167.082 105.161 167.756 106.171 167.989 107.318C168.221 108.465 167.993 109.657 167.354 110.639Z" fill="#0C0C0C"/>
<path d="M143.681 96.3631L139.638 103.012C139.063 104.042 138.101 104.803 136.964 105.128C135.827 105.453 134.608 105.315 133.572 104.745L133.289 104.584C132.3 103.932 131.61 102.917 131.37 101.76C131.129 100.603 131.358 99.3979 132.006 98.4082L132.966 96.8265L137.889 97.4109L135.089 93.381L136.1 91.7892C136.676 90.7609 137.638 90.0022 138.775 89.6793C139.912 89.3564 141.131 89.4957 142.165 90.0665L142.438 90.2277C143.409 90.8851 144.083 91.8956 144.315 93.0425C144.548 94.1895 144.32 95.3816 143.681 96.3631Z" fill="#0C0C0C"/>
<path d="M170.336 100.121C170.336 100.121 176.512 103.859 174.38 109.047" stroke="#0C0C0C" stroke-width="2.02168" stroke-miterlimit="10" stroke-linecap="round"/>
<path d="M144.985 84.8177C144.985 84.8177 138.788 81.1002 135.159 85.3819" stroke="#0C0C0C" stroke-width="2.02168" stroke-miterlimit="10" stroke-linecap="round"/>
<path d="M124.11 108.241C125.222 106.408 127.426 105.4 129.822 104.866C134.759 103.832 139.906 104.741 144.186 107.405L149.664 110.699C154.014 113.251 157.211 117.375 158.59 122.215C159.227 124.572 159.348 126.99 158.236 128.824C156.709 131.336 154.243 133.14 151.381 133.841C148.519 134.542 145.494 134.082 142.973 132.561L127.81 123.494C126.561 122.736 125.474 121.74 124.612 120.562C123.749 119.385 123.129 118.05 122.785 116.633C122.441 115.216 122.381 113.745 122.609 112.305C122.836 110.865 123.347 109.484 124.11 108.241Z" fill="white" stroke="#0C0C0C" stroke-width="2.02168" stroke-miterlimit="10"/>
<path d="M130.672 113.964C131.035 111.556 132.693 109.823 134.402 110.075C136.11 110.327 137.171 112.493 136.807 114.89C136.443 117.288 133.077 118.779 133.077 118.779C133.077 118.779 130.298 116.361 130.672 113.964Z" fill="#0C0C0C"/>
<path d="M150.029 125.63C151.99 124.199 152.758 121.912 151.747 120.532C150.736 119.152 148.31 119.202 146.349 120.643C144.388 122.084 144.631 125.741 144.631 125.741C144.631 125.741 148.068 127.07 150.029 125.63Z" fill="#0C0C0C"/>
<path d="M167.304 123.716C166.355 125.871 164.989 127.819 163.285 129.448C161.58 131.077 159.57 132.355 157.37 133.21C155.17 134.066 152.822 134.48 150.461 134.431C148.1 134.382 145.772 133.87 143.61 132.924" stroke="#0C0C0C" stroke-width="2.02168" stroke-linecap="round" stroke-linejoin="round"/>
</g>
<defs>
<clipPath id="clip0_248_4354">
<rect width="332" height="181" fill="white"/>
</clipPath>
</defs>
</svg>
