<svg width="330" height="154" viewBox="0 0 330 154" fill="none" xmlns="http://www.w3.org/2000/svg">
<g clip-path="url(#clip0_248_4153)">
<path d="M1.00476 112.291L328.995 110.992" stroke="#0C0C0C" stroke-width="1.76592" stroke-miterlimit="10" stroke-linecap="round"/>
<path d="M180.624 144.469L181.839 128.35C182.241 122.93 178.443 118.275 173.611 118.275H170.878C166.015 118.275 162.207 122.98 162.659 128.431L163.985 144.55C164.377 149.325 167.944 152.982 172.214 152.982H172.385C176.685 152.982 180.262 149.285 180.624 144.469Z" fill="white" stroke="#0C0C0C" stroke-width="1.76592" stroke-miterlimit="10"/>
<path d="M121.384 146.323L120.168 133.669C119.766 129.428 123.564 125.781 128.407 125.781H131.13C135.993 125.781 139.801 129.468 139.359 133.73L138.022 146.384C137.631 150.121 134.064 152.982 129.794 152.982H129.623C125.333 152.982 121.715 150.091 121.384 146.323Z" fill="white" stroke="#0C0C0C" stroke-width="1.76592" stroke-miterlimit="10"/>
<path d="M222.512 94.3281C222.512 94.3281 221.999 80.0222 236.408 81.2312C250.816 82.4401 247.61 101.582 237.503 93.0386C227.395 84.4953 240.025 68.4868 240.025 68.4868" stroke="#0C0C0C" stroke-width="1.76592" stroke-linecap="round" stroke-linejoin="round"/>
<path d="M99.9223 87.4172L84.1478 89.6538C84.083 89.3847 84.0327 89.1123 83.9971 88.8378C82.5904 78.8236 90.4174 69.4341 101.49 67.8726" fill="white"/>
<path d="M99.9223 87.4172L84.1478 89.6538C84.083 89.3847 84.0327 89.1123 83.9971 88.8378C82.5904 78.8236 90.4174 69.4341 101.49 67.8726" stroke="#0C0C0C" stroke-width="1.76592" stroke-linecap="round" stroke-linejoin="round"/>
<path d="M172.485 37.3364H147.306C118.468 37.3364 95.0895 60.7777 95.0895 89.694C95.0895 118.61 118.468 142.052 147.306 142.052H172.485C201.324 142.052 224.702 118.61 224.702 89.694C224.702 60.7777 201.324 37.3364 172.485 37.3364Z" fill="white" stroke="#0C0C0C" stroke-width="1.76592" stroke-miterlimit="10" stroke-linecap="round"/>
<path opacity="0.99" d="M167.874 76.6575L158.66 89.6839" stroke="#0C0C0C" stroke-width="1.76592" stroke-linecap="round" stroke-linejoin="round"/>
<path d="M158.549 89.6737C148.653 87.7596 142.001 76.9697 144.131 65.9683L158.549 89.6737Z" fill="white"/>
<path d="M158.549 89.6737C148.653 87.7596 142.001 76.9697 144.131 65.9683" stroke="#0C0C0C" stroke-width="1.76592" stroke-miterlimit="10" stroke-linecap="round"/>
<path d="M155.806 135.473L152.38 147.723C151.375 151.34 147.356 153.567 143.177 152.851H142.996C138.766 152.136 135.721 148.681 135.963 144.903L136.867 132.229" fill="white"/>
<path d="M155.806 135.473L152.38 147.723C151.375 151.34 147.356 153.567 143.177 152.851H142.996C138.766 152.136 135.721 148.681 135.963 144.903L136.867 132.229" stroke="#0C0C0C" stroke-width="1.76592" stroke-linecap="round" stroke-linejoin="round"/>
<path d="M189.154 134.768L192.49 147.532C193.495 151.31 197.453 153.577 201.673 152.831H201.844C206.084 152.056 209.159 148.419 208.877 144.479L207.591 127.03" fill="white"/>
<path d="M189.154 134.768L192.49 147.532C193.495 151.31 197.453 153.577 201.673 152.831H201.844C206.084 152.056 209.159 148.419 208.877 144.479L207.591 127.03" stroke="#0C0C0C" stroke-width="1.76592" stroke-linecap="round" stroke-linejoin="round"/>
<path d="M156.058 138.273C155.786 139.523 157.826 141.507 159.896 141.709C157.868 141.976 155.82 142.064 153.777 141.971C154.169 140.671 155.525 139.674 156.058 138.273Z" fill="#0C0C0C"/>
<path d="M135.541 137.246C135.35 138.515 133.33 139.845 131.361 139.634C133.37 140.037 134.114 142.021 137.098 141.104C136.867 139.805 135.902 138.707 135.541 137.246Z" fill="#0C0C0C"/>
<path d="M188.611 135.946C188.513 136.806 188.146 137.613 187.563 138.252C186.98 138.89 186.211 139.328 185.366 139.503C187.375 139.271 188.722 140.933 191.274 139.14C190.641 137.941 189.395 137.226 188.611 135.946Z" fill="#0C0C0C"/>
<path d="M96.1847 69.3634C96.7812 69.7428 97.2044 70.3428 97.3624 71.0332C97.5204 71.7235 97.4005 72.4485 97.0287 73.0507C97.6717 72.5369 98.0334 72.8996 98.4253 72.1642C98.6259 71.802 98.7311 71.3947 98.7311 70.9804C98.7311 70.5662 98.6259 70.1588 98.4253 69.7967C97.943 69.1015 96.9784 69.162 96.1847 69.3634Z" fill="#0C0C0C"/>
<path d="M138.394 97.9752L137.832 105.723C137.79 106.905 137.282 108.022 136.419 108.828C135.556 109.635 134.409 110.065 133.23 110.024H132.908C132.328 109.96 131.767 109.783 131.255 109.501C130.744 109.219 130.293 108.839 129.928 108.382C129.563 107.926 129.292 107.402 129.129 106.84C128.966 106.278 128.916 105.69 128.98 105.108L129.11 103.264L133.773 101.521L129.452 99.154L129.583 97.3103C129.627 96.13 130.137 95.0154 130.999 94.211C131.862 93.4065 133.007 92.9777 134.184 93.0185H134.506C135.086 93.0872 135.647 93.27 136.157 93.5564C136.667 93.8429 137.115 94.2273 137.476 94.6878C137.837 95.1482 138.104 95.6757 138.262 96.2398C138.419 96.8039 138.464 97.3936 138.394 97.9752Z" fill="#0C0C0C"/>
<path d="M110.964 95.9604L110.402 103.718C110.357 104.898 109.848 106.013 108.985 106.817C108.123 107.622 106.977 108.05 105.8 108.01H105.479C104.306 107.878 103.234 107.285 102.498 106.361C101.761 105.438 101.42 104.259 101.55 103.083L101.681 101.239L106.302 99.5369L101.982 97.1794L102.113 95.3357C102.155 94.1536 102.663 93.0365 103.526 92.2299C104.389 91.4233 105.535 90.9931 106.714 91.0339H107.036C108.208 91.1656 109.28 91.7583 110.017 92.682C110.754 93.6057 111.094 94.7849 110.964 95.9604Z" fill="#0C0C0C"/>
<path d="M136.274 87.2559C136.274 87.2559 143.448 87.7898 143.92 93.3711" stroke="#0C0C0C" stroke-width="1.76592" stroke-miterlimit="10" stroke-linecap="round"/>
<path d="M106.905 85.0998C106.905 85.0998 99.7312 84.586 98.4552 90.0364" stroke="#0C0C0C" stroke-width="1.76592" stroke-miterlimit="10" stroke-linecap="round"/>
<path d="M99.0078 115.394C99.1686 113.258 100.666 111.364 102.544 109.803C106.451 106.646 111.421 105.123 116.42 105.551L122.76 106.025C127.766 106.326 132.463 108.552 135.872 112.241C137.51 114.054 138.705 116.15 138.555 118.286C138.344 121.217 136.981 123.944 134.765 125.867C132.549 127.79 129.662 128.752 126.739 128.542L109.236 127.252C107.788 127.147 106.374 126.757 105.076 126.105C103.778 125.452 102.621 124.549 101.672 123.448C100.722 122.347 99.9975 121.069 99.5404 119.687C99.0833 118.305 98.9024 116.846 99.0078 115.394Z" fill="white" stroke="#0C0C0C" stroke-width="1.76592" stroke-miterlimit="10"/>
<path d="M107.408 117.53C106.644 115.223 107.337 112.916 108.955 112.382C110.573 111.848 112.512 113.279 113.265 115.586C114.019 117.893 111.718 120.734 111.718 120.734C111.718 120.734 108.171 119.837 107.408 117.53Z" fill="#0C0C0C"/>
<path d="M129.844 119.172C130.929 117.006 130.577 114.619 129.05 113.853C127.523 113.087 125.413 114.226 124.328 116.392C123.243 118.558 125.112 121.711 125.112 121.711C125.112 121.711 128.749 121.348 129.844 119.172Z" fill="#0C0C0C"/>
<path d="M138.625 118.467C137.239 116.744 136.616 110.599 136.415 108.443C136.407 108.359 136.42 108.274 136.453 108.197C136.486 108.12 136.538 108.052 136.604 108C136.67 107.948 136.748 107.913 136.831 107.899C136.914 107.885 136.999 107.892 137.078 107.919C139.087 108.584 144.835 110.579 146.221 112.301C147.037 113.311 147.418 114.605 147.283 115.897C147.147 117.189 146.505 118.375 145.498 119.192C144.49 120.01 143.201 120.393 141.912 120.257C140.623 120.121 139.441 119.477 138.625 118.467Z" fill="#0E70F1"/>
<path d="M97.3701 4.80561L116.269 59.6214C116.434 60.1029 116.725 60.5314 117.11 60.8629C117.495 61.1944 117.962 61.4168 118.462 61.5072C118.961 61.5975 119.476 61.5526 119.952 61.3769C120.429 61.2013 120.85 60.9013 121.173 60.508L159.564 13.7317C159.887 13.339 160.1 12.867 160.18 12.3644C160.261 11.8618 160.206 11.3468 160.022 10.8725C159.837 10.3982 159.53 9.98175 159.132 9.66617C158.733 9.3506 158.258 9.14729 157.755 9.07722L100.485 1.01756C99.9978 0.946692 99.5008 1.00288 99.0417 1.18066C98.5827 1.35844 98.1771 1.65184 97.8641 2.03255C97.551 2.41326 97.3411 2.86843 97.2546 3.35416C97.168 3.83989 97.2078 4.33977 97.3701 4.80561Z" fill="#D1405A"/>
<path d="M113.021 13.6325L112.089 14.7682C111.599 15.3653 111.684 16.2478 112.28 16.7393L124.172 26.5548C124.767 27.0464 125.647 26.9607 126.138 26.3636L127.07 25.228C127.56 24.6309 127.475 23.7484 126.879 23.2569L114.987 13.4414C114.392 12.9498 113.512 13.0354 113.021 13.6325Z" fill="white"/>
<path d="M130.818 31.5838C132.106 31.5838 133.149 30.5373 133.149 29.2465C133.149 27.9556 132.106 26.9092 130.818 26.9092C129.531 26.9092 128.487 27.9556 128.487 29.2465C128.487 30.5373 129.531 31.5838 130.818 31.5838Z" fill="white"/>
<path d="M120.138 68.2754C116.461 68.2754 113.487 67.0362 113.487 65.5049" stroke="#0C0C0C" stroke-width="1.76592" stroke-linecap="round" stroke-linejoin="round"/>
<path d="M126.799 65.5049C126.799 67.0362 123.785 68.2754 120.138 68.2754" stroke="#0C0C0C" stroke-width="1.76592" stroke-linecap="round" stroke-linejoin="round"/>
</g>
<defs>
<clipPath id="clip0_248_4153">
<rect width="330" height="154" fill="white"/>
</clipPath>
</defs>
</svg>
