<svg width="40" height="40" viewBox="0 0 40 40" fill="none" xmlns="http://www.w3.org/2000/svg">
<path d="M27.8666 19.2081L20.2082 26.8664C19.27 27.8046 17.9976 28.3317 16.6707 28.3317C15.3439 28.3317 14.0715 27.8046 13.1332 26.8664C12.195 25.9282 11.668 24.6558 11.668 23.3289C11.668 22.0021 12.195 20.7296 13.1332 19.7914L20.7916 12.1331C21.4171 11.5076 22.2654 11.1562 23.1499 11.1562C24.0345 11.1563 24.8828 11.5076 25.5082 12.1331C26.1337 12.7586 26.4851 13.6069 26.4851 14.4914C26.4851 15.376 26.1337 16.2243 25.5082 16.8498L17.8416 24.5081C17.5288 24.8208 17.1047 24.9965 16.6624 24.9965C16.2201 24.9965 15.796 24.8208 15.4832 24.5081C15.1705 24.1954 14.9948 23.7712 14.9948 23.3289C14.9948 22.8867 15.1705 22.4625 15.4832 22.1498L22.5582 15.0831" stroke="#1BC47D" stroke-width="1.66667" stroke-linecap="round" stroke-linejoin="round"/>
</svg>
