<svg width="208" height="59" viewBox="0 0 208 59" fill="none" xmlns="http://www.w3.org/2000/svg">
<g clip-path="url(#clip0_235_2247)">
<path d="M200.296 59H7.70354C3.46811 59 0 55.6786 0 51.6224V7.37343C0 3.3214 3.46811 0 7.70354 0H200.296C204.532 0 208 3.3214 208 7.37343V51.6224C208 55.6786 204.528 59 200.296 59Z" fill="black"/>
<path d="M200.296 1.17992C203.864 1.17992 206.764 3.95965 206.764 7.37343V51.6224C206.764 55.0362 203.864 57.8159 200.296 57.8159H7.70354C4.13572 57.8159 1.23551 55.0362 1.23551 51.6224V7.37343C1.23551 3.95965 4.13572 1.17992 7.70354 1.17992H200.296ZM200.296 0H7.70354C3.46811 0 0 3.3214 0 7.37343V51.6224C0 55.6786 3.46811 58.9958 7.70354 58.9958H200.296C204.532 58.9958 208 55.6744 208 51.6224V7.37343C208 3.3214 204.528 0 200.296 0Z" fill="#A6A6A6"/>
<path d="M73.0552 15.1124C73.0552 16.3427 72.6694 17.3295 71.9108 18.0643C71.0351 18.9377 69.8993 19.3744 68.5077 19.3744C67.1768 19.3744 66.041 18.9293 65.1089 18.0475C64.1769 17.1531 63.7087 16.0614 63.7087 14.7513C63.7087 13.4412 64.1769 12.3453 65.1089 11.4593C66.041 10.5733 67.1768 10.1282 68.5077 10.1282C69.171 10.1282 69.7995 10.2584 70.4065 10.5019C71.0047 10.7455 71.4946 11.0772 71.8501 11.4887L71.0437 12.2655C70.4238 11.5643 69.5828 11.22 68.5077 11.22C67.5366 11.22 66.6956 11.5475 65.9803 12.1983C65.2737 12.8534 64.9182 13.7058 64.9182 14.7471C64.9182 15.7885 65.2737 16.6492 65.9803 17.3043C66.6956 17.9509 67.5366 18.2827 68.5077 18.2827C69.5394 18.2827 70.4065 17.9509 71.0871 17.2959C71.5379 16.8634 71.7937 16.2629 71.8631 15.5029H68.5077V14.4406H72.9859C73.0422 14.6715 73.0552 14.8941 73.0552 15.1124Z" fill="white" stroke="white" stroke-width="0.16" stroke-miterlimit="10"/>
<path d="M80.1562 11.4128H75.9511V14.2177H79.7443V15.2842H75.9511V18.0849H80.1562V19.1725H74.7633V10.3294H80.1562V11.4128Z" fill="white" stroke="white" stroke-width="0.16" stroke-miterlimit="10"/>
<path d="M85.1671 19.1725H83.975V11.4128H81.3956V10.3294H87.7466V11.4128H85.1671V19.1725Z" fill="white" stroke="white" stroke-width="0.16" stroke-miterlimit="10"/>
<path d="M92.3474 19.1725V10.3294H93.5353V19.1725H92.3474Z" fill="white" stroke="white" stroke-width="0.16" stroke-miterlimit="10"/>
<path d="M98.8029 19.1725H97.6238V11.4128H95.0357V10.3294H101.395V11.4128H98.8072V19.1725H98.8029Z" fill="white" stroke="white" stroke-width="0.16" stroke-miterlimit="10"/>
<path d="M113.413 18.0349C112.502 18.9293 111.371 19.3744 110.027 19.3744C108.674 19.3744 107.543 18.9293 106.633 18.0349C105.726 17.1405 105.271 16.0488 105.271 14.7513C105.271 13.4538 105.726 12.3579 106.633 11.4677C107.543 10.5733 108.674 10.1282 110.027 10.1282C111.367 10.1282 112.494 10.5733 113.404 11.4761C114.319 12.3747 114.774 13.4622 114.774 14.7513C114.774 16.0488 114.319 17.1405 113.413 18.0349ZM107.513 17.2917C108.198 17.9551 109.03 18.2869 110.027 18.2869C111.015 18.2869 111.856 17.9551 112.533 17.2917C113.218 16.6283 113.564 15.7801 113.564 14.7513C113.564 13.7225 113.218 12.8702 112.533 12.2067C111.856 11.5433 111.015 11.2116 110.027 11.2116C109.034 11.2116 108.202 11.5433 107.513 12.2067C106.828 12.8702 106.481 13.7183 106.481 14.7513C106.481 15.7801 106.828 16.6324 107.513 17.2917Z" fill="white" stroke="white" stroke-width="0.16" stroke-miterlimit="10"/>
<path d="M116.441 19.1725V10.3294H117.885L122.376 17.2074H122.428L122.376 15.5068V10.3294H123.564V19.1725H122.324L117.62 11.9544H117.568L117.62 13.6592V19.1725H116.441Z" fill="white" stroke="white" stroke-width="0.16" stroke-miterlimit="10"/>
<path d="M104.974 32.0846C101.355 32.0846 98.4024 34.7216 98.4024 38.3579C98.4024 41.9648 101.359 44.6312 104.974 44.6312C108.603 44.6312 111.56 41.969 111.56 38.3579C111.56 34.7216 108.603 32.0846 104.974 32.0846ZM104.974 42.1622C102.989 42.1622 101.281 40.5918 101.281 38.3621C101.281 36.0988 102.989 34.5578 104.974 34.5578C106.96 34.5578 108.677 36.0988 108.677 38.3621C108.677 40.5918 106.96 42.1622 104.974 42.1622ZM90.6295 32.0846C87.001 32.0846 84.0531 34.7216 84.0531 38.3579C84.0531 41.9648 87.001 44.6312 90.6295 44.6312C94.2537 44.6312 97.2059 41.969 97.2059 38.3579C97.2059 34.7216 94.2537 32.0846 90.6295 32.0846ZM90.6295 42.1622C88.644 42.1622 86.9273 40.5918 86.9273 38.3621C86.9273 36.0988 88.6397 34.5578 90.6295 34.5578C92.615 34.5578 94.323 36.0988 94.323 38.3621C94.323 40.5918 92.615 42.1622 90.6295 42.1622ZM73.5577 34.0077V36.6741H80.2078C80.0127 38.1647 79.4925 39.2607 78.6949 40.0207C77.7238 40.9445 76.2108 41.9648 73.5577 41.9648C69.4653 41.9648 66.2617 38.803 66.2617 34.8853C66.2617 30.9677 69.4653 27.8058 73.5577 27.8058C75.7686 27.8058 77.3813 28.633 78.5691 29.708L80.533 27.831C78.8683 26.311 76.6573 25.1437 73.5577 25.1437C67.9437 25.1437 63.2271 29.5148 63.2271 34.8895C63.2271 40.26 67.9437 44.6354 73.5577 44.6354C76.588 44.6354 78.8683 43.6864 80.6587 41.8976C82.4924 40.1425 83.0647 37.6693 83.0647 35.6747C83.0647 35.0575 83.0127 34.4864 82.9129 34.0119H73.5577V34.0077ZM143.366 36.0736C142.825 34.6712 141.156 32.0846 137.752 32.0846C134.38 32.0846 131.575 34.625 131.575 38.3579C131.575 41.8725 134.354 44.6312 138.073 44.6312C141.086 44.6312 142.82 42.876 143.536 41.8515L141.303 40.428C140.557 41.4693 139.543 42.1622 138.073 42.1622C136.617 42.1622 135.568 41.5239 134.9 40.26L143.666 36.7917L143.366 36.0736ZM134.427 38.1647C134.354 35.7461 136.391 34.5074 137.848 34.5074C138.992 34.5074 139.963 35.0533 140.284 35.8385L134.427 38.1647ZM127.305 44.2491H130.188V25.8113H127.305V44.2491ZM122.588 33.4829H122.493C121.847 32.748 120.611 32.0846 119.046 32.0846C115.765 32.0846 112.765 34.8433 112.765 38.3789C112.765 41.8934 115.765 44.6312 119.046 44.6312C120.611 44.6312 121.843 43.9636 122.493 43.2077H122.588V44.1063C122.588 46.5039 121.249 47.793 119.09 47.793C117.33 47.793 116.237 46.5753 115.786 45.5508L113.281 46.5501C114.005 48.2129 115.916 50.2578 119.09 50.2578C122.467 50.2578 125.319 48.3557 125.319 43.7242V32.4667H122.588V33.4829ZM119.289 42.1622C117.304 42.1622 115.643 40.5708 115.643 38.3789C115.643 36.166 117.304 34.5536 119.289 34.5536C121.249 34.5536 122.788 36.166 122.788 38.3789C122.792 40.5708 121.249 42.1622 119.289 42.1622ZM156.853 25.8113H149.96V44.2491H152.834V37.2662H156.853C160.044 37.2662 163.174 35.0533 163.174 31.5387C163.174 28.0242 160.039 25.8113 156.853 25.8113ZM156.931 34.7006H152.839V28.3769H156.931C159.077 28.3769 160.3 30.0817 160.3 31.5387C160.3 32.9622 159.073 34.7006 156.931 34.7006ZM174.692 32.051C172.616 32.051 170.457 32.9286 169.568 34.8727L172.117 35.8973C172.663 34.8727 173.673 34.541 174.74 34.541C176.231 34.541 177.744 35.3976 177.766 36.9134V37.1066C177.246 36.8169 176.131 36.3928 174.766 36.3928C172.017 36.3928 169.221 37.8414 169.221 40.5414C169.221 43.0146 171.471 44.6018 173.999 44.6018C175.932 44.6018 176.998 43.7662 177.67 42.7962H177.766V44.2197H180.54V37.1486C180.545 33.8776 177.996 32.051 174.692 32.051ZM174.345 42.1538C173.405 42.1538 172.095 41.7087 172.095 40.5918C172.095 39.1641 173.73 38.6182 175.143 38.6182C176.409 38.6182 177.003 38.8828 177.77 39.2397C177.545 40.9445 176.01 42.1538 174.345 42.1538ZM190.654 32.4541L187.351 40.449H187.251L183.835 32.4541H180.735L185.864 43.6234L182.938 49.8379H185.942L193.849 32.4541H190.654ZM164.756 44.2491H167.639V25.8113H164.756V44.2491Z" fill="white"/>
<path d="M16.0782 11.1186C15.6273 11.5721 15.3629 12.2776 15.3629 13.1929V45.8107C15.3629 46.7261 15.6273 47.4315 16.0782 47.885L16.1909 47.9858L35.2829 29.716V29.2835L16.1909 11.0137L16.0782 11.1186Z" fill="url(#paint0_linear_235_2247)"/>
<path d="M41.6386 35.8088L35.2833 29.716V29.2835L41.6473 23.1908L41.7904 23.2706L49.3292 27.3772C51.4794 28.5403 51.4794 30.4592 49.3292 31.6308L41.7904 35.729L41.6386 35.8088Z" fill="url(#paint1_linear_235_2247)"/>
<path d="M41.7908 35.7293L35.2838 29.5022L16.0791 47.8896C16.7944 48.6076 17.9562 48.6958 19.2828 47.9736L41.7908 35.7293Z" fill="url(#paint2_linear_235_2247)"/>
<path d="M41.7908 23.271L19.2828 11.0268C17.9562 10.3129 16.7944 10.4011 16.0791 11.1233L35.2838 29.5023L41.7908 23.271Z" fill="url(#paint3_linear_235_2247)"/>
</g>
<defs>
<linearGradient id="paint0_linear_235_2247" x1="33.5859" y1="46.1546" x2="8.85603" y2="20.3213" gradientUnits="userSpaceOnUse">
<stop stop-color="#00A0FF"/>
<stop offset="0.0066" stop-color="#00A1FF"/>
<stop offset="0.2601" stop-color="#00BEFF"/>
<stop offset="0.5122" stop-color="#00D2FF"/>
<stop offset="0.7604" stop-color="#00DFFF"/>
<stop offset="1" stop-color="#00E3FF"/>
</linearGradient>
<linearGradient id="paint1_linear_235_2247" x1="52.131" y1="29.4996" x2="14.8508" y2="29.4996" gradientUnits="userSpaceOnUse">
<stop stop-color="#FFE000"/>
<stop offset="0.4087" stop-color="#FFBD00"/>
<stop offset="0.7754" stop-color="#FFA500"/>
<stop offset="1" stop-color="#FF9C00"/>
</linearGradient>
<linearGradient id="paint2_linear_235_2247" x1="25.3966" y1="38.4231" x2="-8.12967" y2="3.40107" gradientUnits="userSpaceOnUse">
<stop stop-color="#FF3A44"/>
<stop offset="1" stop-color="#C31162"/>
</linearGradient>
<linearGradient id="paint3_linear_235_2247" x1="-1.60699" y1="46.4319" x2="13.3655" y2="30.7916" gradientUnits="userSpaceOnUse">
<stop stop-color="#32A071"/>
<stop offset="0.0685" stop-color="#2DA771"/>
<stop offset="0.4762" stop-color="#15CF74"/>
<stop offset="0.8009" stop-color="#06E775"/>
<stop offset="1" stop-color="#00F076"/>
</linearGradient>
<clipPath id="clip0_235_2247">
<rect width="208" height="59" fill="white"/>
</clipPath>
</defs>
</svg>
