
  <svg
    width="209"
    height="58"
    viewBox="0 0 209 58"
    fill="none"
    xmlns="http://www.w3.org/2000/svg"
  >
    <path
      d="M192.355 0H16.6452C16.0165 0 15.3877 0 14.7414 0C14.2 0 13.676 0.0145 13.1345 0.0145C11.9643 0.0435 10.7941 0.1015 9.64132 0.2755C8.47108 0.4495 7.38818 0.7395 6.32275 1.189C5.27478 1.624 4.31414 2.204 3.49323 2.9C2.65486 3.5815 1.95621 4.379 1.43222 5.249C0.890774 6.1335 0.541451 7.0325 0.331857 8.004C0.122263 8.961 0.0523985 9.9325 0.0174662 10.904C0.0174662 11.3535 0 11.803 0 12.238C0 12.76 0 13.2965 0 13.8185V44.167C0 44.7035 0 45.2255 0 45.7475C0 46.197 0.0174662 46.632 0.0349323 47.0815C0.0698646 48.053 0.139729 49.0245 0.349323 49.9815C0.558917 50.953 0.890774 51.8665 1.44969 52.7365C1.97368 53.6065 2.67232 54.3895 3.5107 55.071C4.33161 55.767 5.29224 56.347 6.34021 56.782C7.40565 57.2315 8.48855 57.5215 9.65878 57.6955C10.8116 57.8695 11.9992 57.9275 13.152 57.9565C13.676 57.9855 14.2 58 14.7414 58C15.3877 58 16.0165 58 16.6452 58H192.355C192.984 58 193.612 58 194.241 58C194.765 58 195.324 58 195.848 57.9855C197.018 57.9565 198.188 57.8985 199.341 57.7245C200.511 57.5505 201.594 57.2605 202.677 56.811C203.725 56.376 204.668 55.796 205.507 55.1C206.345 54.4185 207.026 53.621 207.568 52.7655C208.109 51.881 208.459 50.982 208.651 50.0105C208.86 49.0535 208.93 48.082 208.983 47.1105C208.983 46.661 208.983 46.226 208.983 45.7765C209 45.2545 209 44.7325 209 44.196V13.833C209 13.2965 209 12.7745 208.983 12.2525C208.983 11.803 208.983 11.368 208.983 10.9185C208.948 9.947 208.878 8.9755 208.651 8.0185C208.459 7.047 208.109 6.148 207.568 5.2635C207.026 4.3935 206.328 3.596 205.507 2.9145C204.686 2.233 203.725 1.653 202.677 1.2035C201.594 0.754 200.511 0.464 199.341 0.29C198.188 0.116 197.018 0.058 195.848 0.029C195.324 0.029 194.765 0.0145 194.241 0.0145C193.63 0 192.984 0 192.355 0Z"
      fill="#B7B7B7"
    />
    <path
      d="M14.742 56.724C14.218 56.724 13.6941 56.724 13.1701 56.7095C12.192 56.6805 11.0392 56.637 9.90391 56.4775C8.83848 56.318 7.8953 56.057 7.00453 55.68C6.09629 55.303 5.27538 54.7955 4.55927 54.201C3.84315 53.6065 3.24931 52.9395 2.77772 52.171C2.3236 51.446 2.00921 50.6485 1.83455 49.764C1.62495 48.7925 1.57256 47.792 1.53762 47.038C1.52016 46.7335 1.52016 45.7185 1.52016 45.7185V12.238C1.52016 12.238 1.53762 11.2375 1.53762 10.9475C1.57256 10.1935 1.62495 9.193 1.83455 8.236C2.02668 7.337 2.34107 6.554 2.79519 5.829C3.26677 5.075 3.86062 4.3935 4.57673 3.799C5.29285 3.19 6.11376 2.697 7.00453 2.32C7.8953 1.943 8.85594 1.682 9.88644 1.537C11.0741 1.3485 12.2618 1.305 13.1701 1.2905L14.742 1.276H194.242L195.831 1.2905C196.722 1.305 197.927 1.3485 199.08 1.5225C200.128 1.682 201.088 1.9285 201.997 2.32C202.887 2.697 203.708 3.2045 204.424 3.799C205.141 4.3935 205.734 5.075 206.206 5.829C206.66 6.5685 206.957 7.3515 207.149 8.2215C207.359 9.135 207.411 10.0775 207.446 10.962C207.446 11.368 207.446 11.8175 207.446 12.2525C207.464 12.8035 207.464 13.311 207.464 13.833V44.1815C207.464 44.7035 207.464 45.2255 207.446 45.7475C207.446 46.226 207.446 46.6465 207.446 47.096C207.411 47.9515 207.341 48.894 207.149 49.7785C206.975 50.663 206.66 51.4605 206.206 52.2C205.734 52.954 205.141 53.6355 204.424 54.2155C203.708 54.8245 202.887 55.3175 201.979 55.6945C201.071 56.0715 200.145 56.3325 199.062 56.492C197.945 56.666 196.792 56.7095 195.796 56.724C195.29 56.7385 194.748 56.7385 194.224 56.7385H192.338L14.742 56.724Z"
      fill="#000001"
    />
    <path
      d="M52.2512 29.4348C52.206 25.4473 55.6363 23.5043 55.8018 23.4173C53.861 20.6913 50.852 20.3143 49.7988 20.2853C47.2712 20.0243 44.8189 21.7353 43.54 21.7353C42.2311 21.7353 40.2452 20.2998 38.1088 20.3433C35.3555 20.3868 32.7828 21.9238 31.3836 24.3018C28.4799 29.1593 30.6464 36.2933 33.4297 40.2228C34.8289 42.1513 36.4538 44.2973 38.5902 44.2103C40.6815 44.1233 41.4638 42.9343 43.9763 42.9343C46.4738 42.9343 47.196 44.2103 49.3775 44.1668C51.6193 44.1378 53.0335 42.2383 54.3725 40.2953C55.9823 38.0913 56.6293 35.9163 56.6594 35.8148C56.5841 35.8003 52.2963 34.2198 52.2512 29.4348Z"
      fill="white"
    />
    <path
      d="M48.1431 17.7044C49.2715 16.3559 50.0388 14.5144 49.8131 12.6439C48.1883 12.7164 46.1572 13.7314 44.9837 15.0509C43.9456 16.2109 43.0278 18.1249 43.2685 19.9229C45.089 20.0534 46.9696 19.0384 48.1431 17.7044Z"
      fill="white"
    />
    <path
      d="M79.093 39.3531H71.9766L70.2615 44.2251H67.2525L73.9927 26.2161H77.1221L83.8623 44.2251H80.7931L79.093 39.3531ZM72.7138 37.1056H78.3558L75.5724 29.2031H75.4972L72.7138 37.1056Z"
      fill="white"
    />
    <path
      d="M98.4406 37.6569C98.4406 41.7314 96.1688 44.3559 92.7536 44.3559C90.8127 44.3559 89.2781 43.5149 88.4657 42.0649H88.4055V48.5609H85.6071V31.0884H88.3152V33.2779H88.3604C89.1427 31.8714 90.7977 30.9579 92.6934 30.9579C96.1688 30.9579 98.4406 33.5824 98.4406 37.6569ZM95.567 37.6569C95.567 35.0034 94.1377 33.2489 91.9712 33.2489C89.8348 33.2489 88.3905 35.0324 88.3905 37.6569C88.3905 40.2959 89.8348 42.0794 91.9712 42.0794C94.1377 42.0794 95.567 40.3394 95.567 37.6569Z"
      fill="white"
    />
    <path
      d="M113.427 37.6569C113.427 41.7314 111.155 44.3559 107.74 44.3559C105.799 44.3559 104.264 43.5149 103.452 42.0649H103.392V48.5609H100.608V31.0884H103.316V33.2779H103.362C104.144 31.8714 105.799 30.9579 107.695 30.9579C111.155 30.9579 113.427 33.5824 113.427 37.6569ZM110.553 37.6569C110.553 35.0034 109.124 33.2489 106.957 33.2489C104.821 33.2489 103.377 35.0324 103.377 37.6569C103.377 40.2959 104.821 42.0794 106.957 42.0794C109.139 42.0794 110.553 40.3394 110.553 37.6569Z"
      fill="white"
    />
    <path
      d="M123.34 39.2081C123.551 40.9916 125.341 42.1661 127.809 42.1661C130.171 42.1661 131.856 40.9916 131.856 39.3821C131.856 37.9901 130.833 37.1491 128.41 36.5691L125.988 36.0036C122.558 35.2061 120.963 33.6546 120.963 31.1461C120.963 28.0431 123.776 25.9116 127.763 25.9116C131.705 25.9116 134.413 28.0431 134.504 31.1461H131.675C131.51 29.3481 129.96 28.2606 127.718 28.2606C125.477 28.2606 123.927 29.3626 123.927 30.9576C123.927 32.2336 124.905 32.9731 127.312 33.5531L129.373 34.0461C133.21 34.9161 134.804 36.4096 134.804 39.0341C134.804 42.3981 132.021 44.5151 127.598 44.5151C123.46 44.5151 120.662 42.4561 120.482 39.1936H123.34V39.2081Z"
      fill="white"
    />
    <path
      d="M140.853 27.985V31.088H143.441V33.2195H140.853V40.455C140.853 41.586 141.365 42.108 142.508 42.108C142.794 42.108 143.245 42.0645 143.426 42.05V44.167C143.11 44.2395 142.493 44.2975 141.876 44.2975C139.123 44.2975 138.04 43.297 138.04 40.7595V33.234H136.054V31.1025H138.04V27.985H140.853Z"
      fill="white"
    />
    <path
      d="M144.93 37.6566C144.93 33.5241 147.457 30.9286 151.384 30.9286C155.326 30.9286 157.839 33.5241 157.839 37.6566C157.839 41.8036 155.341 44.3846 151.384 44.3846C147.442 44.3846 144.93 41.8036 144.93 37.6566ZM155.01 37.6566C155.01 34.8291 153.656 33.1471 151.399 33.1471C149.142 33.1471 147.788 34.8291 147.788 37.6566C147.788 40.4986 149.127 42.1661 151.399 42.1661C153.671 42.1661 155.01 40.4986 155.01 37.6566Z"
      fill="white"
    />
    <path
      d="M160.172 31.088H162.835V33.321H162.895C163.316 31.842 164.565 30.943 166.175 30.943C166.581 30.943 166.912 31.001 167.138 31.0445V33.5675C166.912 33.4805 166.431 33.408 165.889 33.408C164.084 33.408 162.97 34.5825 162.97 36.424V44.2105H160.172V31.088Z"
      fill="white"
    />
    <path
      d="M180.016 40.3681C179.64 42.7461 177.233 44.3846 174.149 44.3846C170.192 44.3846 167.724 41.8326 167.724 37.7146C167.724 33.5966 170.192 30.9286 174.028 30.9286C177.789 30.9286 180.167 33.4226 180.167 37.4101V38.3381H170.553V38.4976C170.553 40.7451 172.012 42.2096 174.224 42.2096C175.773 42.2096 176.992 41.4991 177.368 40.3681H180.016ZM170.568 36.4386H177.383C177.323 34.4231 175.984 33.1036 174.043 33.1036C172.117 33.1181 170.718 34.4666 170.568 36.4386Z"
      fill="white"
    />
    <path
      d="M70.5022 12.6587C73.1652 12.6587 74.7299 14.2392 74.7299 16.9507C74.7299 19.7202 73.1802 21.3007 70.5022 21.3007H67.2525V12.6587H70.5022ZM68.6517 20.0827H70.3367C72.2174 20.0827 73.3006 18.9517 73.3006 16.9652C73.3006 15.0077 72.2023 13.8767 70.3367 13.8767H68.6517V20.0827Z"
      fill="white"
    />
    <path
      d="M76.2954 18.0383C76.2954 15.9358 77.514 14.6453 79.4849 14.6453C81.4558 14.6453 82.6745 15.9213 82.6745 18.0383C82.6745 20.1553 81.4558 21.4313 79.4849 21.4313C77.514 21.4313 76.2954 20.1553 76.2954 18.0383ZM81.3054 18.0383C81.3054 16.6173 80.6434 15.7908 79.4849 15.7908C78.3265 15.7908 77.6645 16.6173 77.6645 18.0383C77.6645 19.4593 78.3114 20.2858 79.4849 20.2858C80.6585 20.2858 81.3054 19.4593 81.3054 18.0383Z"
      fill="white"
    />
    <path
      d="M91.1735 21.315H89.7893L88.3901 16.501H88.2848L86.8856 21.315H85.5165L83.6509 14.79H85.005L86.2236 19.778H86.3289L87.7281 14.79H89.007L90.4062 19.778H90.5115L91.7151 14.79H93.0541L91.1735 21.315Z"
      fill="white"
    />
    <path
      d="M94.6043 14.7757H95.8982V15.8197H96.0035C96.3345 15.0947 97.0115 14.6597 98.0196 14.6597C99.5241 14.6597 100.367 15.5297 100.367 17.0812V21.3152H99.0276V17.4147C99.0276 16.3707 98.5612 15.8487 97.5682 15.8487C96.5752 15.8487 95.9433 16.4867 95.9433 17.5017V21.3152H94.6043V14.7757Z"
      fill="white"
    />
    <path
      d="M102.489 12.2382H103.828V21.3152H102.489V12.2382Z"
      fill="white"
    />
    <path
      d="M105.693 18.0383C105.693 15.9358 106.912 14.6453 108.883 14.6453C110.854 14.6453 112.072 15.9213 112.072 18.0383C112.072 20.1553 110.854 21.4313 108.883 21.4313C106.897 21.4313 105.693 20.1553 105.693 18.0383ZM110.703 18.0383C110.703 16.6173 110.041 15.7908 108.883 15.7908C107.724 15.7908 107.062 16.6173 107.062 18.0383C107.062 19.4593 107.709 20.2858 108.883 20.2858C110.041 20.2858 110.703 19.4593 110.703 18.0383Z"
      fill="white"
    />
    <path
      d="M113.486 19.4592C113.486 18.2847 114.389 17.6032 115.999 17.5162L117.834 17.4147V16.8492C117.834 16.1532 117.368 15.7762 116.45 15.7762C115.698 15.7762 115.186 16.0372 115.036 16.5012H113.742C113.877 15.3847 114.976 14.6597 116.51 14.6597C118.21 14.6597 119.173 15.4717 119.173 16.8492V21.3152H117.879V20.4017H117.774C117.368 21.0542 116.631 21.4312 115.743 21.4312C114.434 21.4167 113.486 20.6627 113.486 19.4592ZM117.849 18.9082V18.3572L116.194 18.4587C115.262 18.5167 114.84 18.8212 114.84 19.4012C114.84 19.9957 115.367 20.3292 116.089 20.3292C117.097 20.3292 117.849 19.7202 117.849 18.9082Z"
      fill="white"
    />
    <path
      d="M120.933 18.0382C120.933 15.9792 122.032 14.6742 123.747 14.6742C124.679 14.6742 125.462 15.0947 125.823 15.8197H125.928V12.2382H127.267V21.3152H125.973V20.2857H125.868C125.462 20.9962 124.679 21.4312 123.747 21.4312C122.017 21.4167 120.933 20.1117 120.933 18.0382ZM122.317 18.0382C122.317 19.4302 122.994 20.2567 124.123 20.2567C125.251 20.2567 125.943 19.4157 125.943 18.0382C125.943 16.6752 125.236 15.8197 124.123 15.8197C122.994 15.8342 122.317 16.6752 122.317 18.0382Z"
      fill="white"
    />
    <path
      d="M132.788 18.0383C132.788 15.9358 134.007 14.6453 135.978 14.6453C137.949 14.6453 139.167 15.9213 139.167 18.0383C139.167 20.1553 137.949 21.4313 135.978 21.4313C134.007 21.4313 132.788 20.1553 132.788 18.0383ZM137.798 18.0383C137.798 16.6173 137.136 15.7908 135.978 15.7908C134.819 15.7908 134.157 16.6173 134.157 18.0383C134.157 19.4593 134.804 20.2858 135.978 20.2858C137.136 20.2858 137.798 19.4593 137.798 18.0383Z"
      fill="white"
    />
    <path
      d="M140.973 14.7757H142.267V15.8197H142.373C142.704 15.0947 143.381 14.6597 144.389 14.6597C145.893 14.6597 146.736 15.5297 146.736 17.0812V21.3152H145.397V17.4147C145.397 16.3707 144.93 15.8487 143.937 15.8487C142.944 15.8487 142.312 16.4867 142.312 17.5017V21.3152H140.973V14.7757Z"
      fill="white"
    />
    <path
      d="M154.289 13.1516V14.8046H155.764V15.8921H154.289V19.2561C154.289 19.9376 154.575 20.2421 155.252 20.2421C155.463 20.2421 155.568 20.2276 155.764 20.2131V21.2861C155.553 21.3151 155.297 21.3586 155.041 21.3586C153.552 21.3586 152.965 20.8511 152.965 19.5896V15.9066H151.897V14.8191H152.965V13.1516H154.289Z"
      fill="white"
    />
    <path
      d="M157.569 12.2382H158.893V15.8342H158.998C159.329 15.1092 160.036 14.6597 161.059 14.6597C162.504 14.6597 163.391 15.5442 163.391 17.0957V21.3152H162.052V17.4147C162.052 16.3707 161.556 15.8487 160.608 15.8487C159.51 15.8487 158.908 16.5157 158.908 17.5017V21.3152H157.569V12.2382Z"
      fill="white"
    />
    <path
      d="M171.198 19.5462C170.898 20.7207 169.814 21.4312 168.265 21.4312C166.324 21.4312 165.135 20.1552 165.135 18.0672C165.135 15.9792 166.354 14.6597 168.265 14.6597C170.145 14.6597 171.289 15.9067 171.289 17.9512V18.4007H166.504V18.4732C166.549 19.6187 167.242 20.3437 168.31 20.3437C169.122 20.3437 169.679 20.0682 169.92 19.5462H171.198ZM166.504 17.4437H169.92C169.889 16.4142 169.243 15.7472 168.25 15.7472C167.257 15.7472 166.58 16.4287 166.504 17.4437Z"
      fill="white"
    />
  </svg>
