<svg
  width="124"
  height="112"
  viewBox="0 0 124 112"
  fill="none"
  xmlns="http://www.w3.org/2000/svg"
>
  <g clip-path="url(#clip0_305_1706)">
    <path
      d="M107.265 42.8288H67.4372C65.9879 42.8489 64.5599 42.4803 63.3027 41.7617C62.0455 41.043 61.0055 40.0008 60.2916 38.7442L56.8896 32.5434C56.1762 31.2874 55.1359 30.2464 53.8783 29.5301C52.6207 28.8139 51.1924 28.4489 49.744 28.4736H24.9647C23.952 28.436 22.9418 28.5976 21.9919 28.9493C21.042 29.3009 20.171 29.8356 19.4287 30.5228C18.6864 31.2101 18.0873 32.0364 17.6659 32.9544C17.2444 33.8725 17.0087 34.8643 16.9723 35.8732V103.106C17.0497 105.142 17.9346 107.064 19.4329 108.452C20.9312 109.839 22.9205 110.577 24.9647 110.505H107.265C109.307 110.573 111.293 109.833 112.788 108.446C114.283 107.059 115.166 105.139 115.243 103.106V50.2136C115.166 48.1813 114.282 46.2625 112.787 44.8781C111.291 43.4937 109.306 42.7568 107.265 42.8288Z"
      fill="white"
      stroke="#0C0C0C"
      stroke-width="2.97115"
      stroke-miterlimit="10"
      stroke-linecap="round"
    />
    <path
      d="M34.5898 11.2946L54.6599 3.68779C57.3649 2.68036 60.3606 2.78307 62.9897 3.97332C65.6188 5.16356 67.6665 7.34418 68.6837 10.0367L84.8912 52.4807C85.4066 53.8099 85.6541 55.2274 85.6194 56.6519C85.5848 58.0765 85.2687 59.4803 84.6893 60.7831C84.1099 62.086 83.2785 63.2624 82.2425 64.2451C81.2066 65.2278 79.9864 65.9974 78.6518 66.5102L50.9756 77.0029C48.2666 78.01 45.2673 77.9056 42.6355 76.7126C40.0037 75.5197 37.9544 73.3354 36.937 70.6392L23.8194 36.2756"
      fill="white"
    />
    <path
      d="M34.5898 11.2946L54.6599 3.68779C57.3649 2.68036 60.3606 2.78307 62.9897 3.97332C65.6188 5.16356 67.6665 7.34418 68.6837 10.0367L84.8912 52.4807C85.4066 53.8099 85.6541 55.2274 85.6194 56.6519C85.5848 58.0765 85.2687 59.4803 84.6893 60.7831C84.1099 62.086 83.2785 63.2624 82.2425 64.2451C81.2066 65.2278 79.9864 65.9974 78.6518 66.5102L50.9756 77.0029C48.2666 78.01 45.2673 77.9056 42.6355 76.7126C40.0037 75.5197 37.9544 73.3354 36.937 70.6392L23.8194 36.2756"
      stroke="#0C0C0C"
      stroke-width="2.97115"
      stroke-miterlimit="10"
    />
    <g clip-path="url(#clip1_305_1706)">
      <path
        d="M59.0593 35.2234L56.157 44.2448C55.8015 45.35 55.0215 46.2687 53.9886 46.7987C52.9557 47.3288 51.7545 47.4269 50.6493 47.0713C49.5442 46.7158 48.6255 45.9357 48.0954 44.9029C47.5653 43.87 47.4673 42.6688 47.8228 41.5636L50.7251 32.5423C50.9621 31.8055 51.4821 31.193 52.1707 30.8396C52.8593 30.4862 53.6601 30.4209 54.3969 30.6579C55.1337 30.8949 55.7461 31.415 56.0995 32.1035C56.4529 32.7921 56.5182 33.5929 56.2812 34.3297L53.3725 43.3544C53.254 43.7228 52.994 44.029 52.6497 44.2057C52.3054 44.3824 51.905 44.4151 51.5366 44.2966C51.1682 44.1781 50.862 43.918 50.6853 43.5738C50.5086 43.2295 50.4759 42.8291 50.5944 42.4607L53.2789 34.133"
        stroke="#1BC47D"
        stroke-width="1.45833"
        stroke-linecap="round"
        stroke-linejoin="round"
      />
    </g>
    <path
      d="M23.8194 36.2013L34.5749 11.2056L41.5571 29.4677L23.8194 36.2013Z"
      fill="white"
      stroke="#0C0C0C"
      stroke-width="2.97115"
      stroke-linecap="round"
      stroke-linejoin="round"
    />
    <path
      d="M27.355 42.1355C26.1369 39.9453 27.771 36.6154 30.3262 35.1059C30.427 35.041 30.5044 34.9456 30.5472 34.8339C30.5899 34.7221 30.5957 34.5996 30.5638 34.4843C30.5191 34.3846 30.4421 34.3028 30.3451 34.2518C30.2482 34.2008 30.1369 34.1837 30.0291 34.2031C28.0454 34.6091 26.1557 35.3822 24.4582 36.4822C24.2529 36.6285 24.0795 36.8146 23.9483 37.0294C23.8171 37.2442 23.7309 37.4833 23.6948 37.7321C23.6587 37.9809 23.6735 38.2345 23.7383 38.4775C23.8031 38.7205 23.9166 38.9479 24.0719 39.1461C25.0042 40.306 26.1118 41.3145 27.355 42.1355Z"
      fill="#0C0C0C"
    />
    <path
      d="M85.367 20.0146L105.719 26.8814C108.449 27.8164 110.695 29.793 111.962 32.3766C113.229 34.9602 113.415 37.9394 112.479 40.6595L97.8608 83.6658C96.9484 86.396 94.9858 88.654 92.4039 89.9442C89.822 91.2344 86.8318 91.4513 84.0895 90.5474L56.0418 81.076C54.6872 80.6145 53.4372 79.8915 52.3633 78.9482C51.2894 78.005 50.4128 76.8601 49.7836 75.5789C49.1544 74.2978 48.7849 72.9058 48.6964 71.4823C48.6079 70.0588 48.802 68.6318 49.2676 67.2831L61.1522 32.4607"
      fill="white"
    />
    <path
      d="M85.367 20.0146L105.719 26.8814C108.449 27.8164 110.695 29.793 111.962 32.3766C113.229 34.9602 113.415 37.9394 112.479 40.6595L97.8608 83.6658C96.9484 86.396 94.9858 88.654 92.4039 89.9442C89.822 91.2344 86.8318 91.4513 84.0895 90.5474L56.0418 81.076C54.6872 80.6145 53.4372 79.8915 52.3633 78.9482C51.2894 78.005 50.4128 76.8601 49.7836 75.5789C49.1544 74.2978 48.7849 72.9058 48.6964 71.4823C48.6079 70.0588 48.802 68.6318 49.2676 67.2831L61.1522 32.4607"
      stroke="#0C0C0C"
      stroke-width="2.97115"
      stroke-miterlimit="10"
    />
    <path
      d="M61.1077 32.4461L85.3671 20L79.0831 38.5137L61.1077 32.4461Z"
      fill="white"
      stroke="#0C0C0C"
      stroke-width="2.97115"
      stroke-linecap="round"
      stroke-linejoin="round"
    />
    <g clip-path="url(#clip2_305_1706)">
      <path
        d="M74.8821 60.787C75.9802 61.2013 77.2062 60.6469 77.6204 59.5488C78.0346 58.4507 77.4802 57.2248 76.3822 56.8106C75.2841 56.3963 74.0581 56.9507 73.6439 58.0488C73.2297 59.1469 73.7841 60.3728 74.8821 60.787Z"
        stroke="#7B61FF"
        stroke-width="1.41667"
        stroke-linecap="round"
        stroke-linejoin="round"
      />
      <path
        d="M77.6204 59.5486L80.8704 50.9329L89.3234 52.6075L86.0734 61.2232"
        stroke="#7B61FF"
        stroke-width="1.41667"
        stroke-linecap="round"
        stroke-linejoin="round"
      />
      <path
        d="M83.3351 62.4609C84.4332 62.8751 85.6592 62.3207 86.0734 61.2226C86.4876 60.1246 85.9332 58.8986 84.8352 58.4844C83.7371 58.0702 82.5111 58.6245 82.0969 59.7226C81.6827 60.8207 82.2371 62.0467 83.3351 62.4609Z"
        stroke="#7B61FF"
        stroke-width="1.41667"
        stroke-linecap="round"
        stroke-linejoin="round"
      />
    </g>
    <path
      d="M60.038 39.2827C60.4986 36.8113 63.9006 35.2869 66.8569 35.7605C66.9766 35.7687 67.0961 35.7406 67.1995 35.6798C67.3029 35.6191 67.3855 35.5286 67.4363 35.4202C67.4604 35.3156 67.4504 35.2061 67.4076 35.1075C67.3648 35.009 67.2916 34.9267 67.1985 34.8726C65.4068 33.9238 63.451 33.3213 61.4345 33.0967C61.1842 33.0827 60.9338 33.1186 60.6976 33.2022C60.4614 33.2858 60.2443 33.4154 60.059 33.5835C59.8737 33.7515 59.7239 33.9547 59.6182 34.1811C59.5126 34.4076 59.4533 34.6527 59.4439 34.9022C59.4184 36.3839 59.6187 37.8609 60.038 39.2827Z"
      fill="#0C0C0C"
    />
    <path
      d="M112.754 66.419L64.8154 66.0245C61.6998 66.1993 58.6131 65.2308 55.957 63.2449L51.5278 59.0845C48.7444 57.1053 45.5527 56.1346 42.3298 56.287L11.3254 56C5.81848 56 1.99464 58.1161 2.77713 60.8598L15.6808 106.033C16.4486 108.776 20.6416 111 25.0265 111H106.804C111.233 111 115.116 108.83 115.663 106.14L121.657 71.3505C121.982 68.6606 118.054 66.4548 112.754 66.419Z"
      fill="white"
      stroke="#0C0C0C"
      stroke-width="2.97115"
      stroke-miterlimit="10"
      stroke-linecap="round"
    />
  </g>
  <defs>
    <clipPath id="clip0_305_1706">
      <rect
        width="122.649"
        height="112"
        fill="white"
        transform="translate(0.675568)"
      />
    </clipPath>
    <clipPath id="clip1_305_1706">
      <rect
        width="17.5"
        height="17.5"
        fill="white"
        transform="translate(41.4718 35.1929) rotate(-27.1667)"
      />
    </clipPath>
    <clipPath id="clip2_305_1706">
      <rect
        width="17"
        height="17"
        fill="white"
        transform="translate(76.1557 45.3691) rotate(20.6676)"
      />
    </clipPath>
  </defs>
</svg>
